<svg width="12" height="11" viewBox="0 0 12 11" fill="none" xmlns="http://www.w3.org/2000/svg">
<path d="M2.91079 7.75111H1.27898C1.10096 7.75111 0.956909 7.89516 0.956909 8.07318V9.03939H2.91079V7.75111Z" fill="#0460D9"/>
<path d="M11.6282 7.75111H9.99634V9.03939H11.9502V8.07318C11.9502 7.89516 11.8062 7.75111 11.6282 7.75111Z" fill="#0460D9"/>
<path d="M9.99634 10.9933H11.6282C11.8062 10.9933 11.9502 10.8492 11.9502 10.6712V9.68353H9.99634V10.9933Z" fill="#0460D9"/>
<path d="M1.27898 10.9933H2.91079V9.68353H0.956909V10.6712C0.956909 10.8492 1.10096 10.9933 1.27898 10.9933Z" fill="#0460D9"/>
<path d="M3.5549 3.69758V3.88629H9.35214V3.69758L9.90191 3.14781C9.96231 3.08741 9.99628 3.00565 9.99628 2.92011V0.322069C9.99628 0.144051 9.85223 0 9.67421 0H8.38593C8.20791 0 8.06386 0.144051 8.06386 0.322069V1.28827H7.41973V0.322069C7.41973 0.144051 7.27568 0 7.09766 0H5.80938C5.63137 0 5.48732 0.144051 5.48732 0.322069V1.28827H4.84318V0.322069C4.84318 0.144051 4.69913 0 4.52111 0H3.23284C3.05482 0 2.91077 0.144051 2.91077 0.322069V2.92009C2.91077 3.00563 2.94473 3.08741 3.00513 3.14779L3.5549 3.69758Z" fill="#0460D9"/>
<path d="M5.4873 8.71732V10.9933H7.41972V8.71732C7.41972 8.18453 6.9863 7.75111 6.45351 7.75111C5.92072 7.75111 5.4873 8.18453 5.4873 8.71732Z" fill="#0460D9"/>
<path d="M8.38596 6.46284H9.35217V4.53043H3.55493V5.8187H4.52114C4.69916 5.8187 4.84321 5.96275 4.84321 6.14077C4.84321 6.31879 4.69916 6.46284 4.52114 6.46284H3.55493C3.55493 6.6701 3.55493 11.1978 3.55493 10.9933H4.84321V8.71732C4.84321 7.82942 5.56565 7.10697 6.45355 7.10697C7.34145 7.10697 8.06389 7.82942 8.06389 8.71732V10.9933H9.35217C9.35217 10.6542 9.35217 8.09665 9.35217 7.10697H8.38596C8.20794 7.10697 8.06389 6.96292 8.06389 6.78491C8.06389 6.60689 8.20794 6.46284 8.38596 6.46284ZM7.74182 5.8187H5.80941C5.63139 5.8187 5.48734 5.67465 5.48734 5.49663C5.48734 5.31861 5.63139 5.17456 5.80941 5.17456H7.74182C7.91984 5.17456 8.06389 5.31861 8.06389 5.49663C8.06389 5.67465 7.91984 5.8187 7.74182 5.8187Z" fill="#0460D9"/>
</svg>
