<svg width="15" height="15" viewBox="0 0 15 15" fill="none" xmlns="http://www.w3.org/2000/svg">
<path d="M14.4141 0H0.585969C0.262313 0 0 0.262299 0 0.585939C0 2.21764 0.6995 3.77541 1.91916 4.85952L4.48541 7.14033C4.93038 7.53584 5.1856 8.10415 5.1856 8.69959V14.4134C5.1856 14.8803 5.70747 15.1603 6.09648 14.9008L9.55358 12.5963C9.71655 12.4876 9.81452 12.3047 9.81452 12.1088V8.69959C9.81452 8.10415 10.0697 7.53584 10.5147 7.14033L13.0808 4.85952C14.3005 3.77541 15 2.21764 15 0.585939C15 0.262299 14.7377 0 14.4141 0ZM12.3023 3.98358L9.73612 6.26451C9.0412 6.88226 8.64258 7.76976 8.64258 8.69948V11.7952L6.35742 13.3186V8.69959C6.35742 7.76976 5.9588 6.88226 5.26388 6.26451L2.69775 3.9837C1.87533 3.25253 1.35036 2.25071 1.20982 1.17176H13.7902C13.6496 2.25071 13.1248 3.25253 12.3023 3.98358Z" fill="#0460D9"/>
</svg>
