<svg width="11" height="11" viewBox="0 0 11 11" fill="none" xmlns="http://www.w3.org/2000/svg">
<path d="M10.6777 10.3555H7.32617V5.15625H6.7467C6.57426 5.57724 6.24044 5.91564 5.82227 6.09355V10.3555H3.86719V6.23047H2.36328V10.3555H0.322266C0.144289 10.3555 0 10.4998 0 10.6777C0 10.8557 0.144289 11 0.322266 11H10.6777C10.8557 11 11 10.8557 11 10.6777C11 10.4998 10.8557 10.3555 10.6777 10.3555Z" fill="#0460D9"/>
<path d="M9.49609 5.58594C9.05674 5.58594 8.64063 5.79837 8.38295 6.15422L8.14153 6.48759C8.04381 6.62254 7.99217 6.78191 7.99217 6.94852C7.99219 7.38184 8.34472 7.73438 8.77806 7.73438H9.17383V8.48633C9.17383 8.78249 8.93288 9.02344 8.63672 9.02344H7.9707V9.66797H8.63672C9.28828 9.66797 9.81836 9.13788 9.81836 8.48633V7.73438H10.2141C10.6475 7.73438 11 7.38184 11 6.9485C11 6.78191 10.9484 6.62252 10.8506 6.48757L10.6092 6.15422C10.3516 5.79837 9.93545 5.58594 9.49609 5.58594Z" fill="#0460D9"/>
<path d="M1.08185 5.58594H5.1486C5.74516 5.58594 6.23047 5.10063 6.23047 4.50409C6.23047 4.21513 6.11793 3.94344 5.9136 3.73912L4.81016 2.63568C4.35742 2.18292 3.75549 1.93359 3.11523 1.93359C2.47498 1.93359 1.87305 2.18292 1.42031 2.63566L0.316873 3.7391C0.112535 3.94344 0 4.21511 0 4.50409C0 5.10063 0.485311 5.58594 1.08185 5.58594Z" fill="#0460D9"/>
<path d="M6.36936 3.28335C6.69543 3.6094 6.87502 4.04293 6.87502 4.50409C6.87502 4.50665 6.87484 4.50916 6.87482 4.51172H9.19917C9.94339 4.51172 10.5488 3.90627 10.5488 3.16205C10.5488 2.76424 10.3747 2.38872 10.071 2.13172L8.2978 0.631361C7.81663 0.224232 7.20452 0 6.57423 0C5.94395 0 5.33184 0.224232 4.85067 0.631361L3.94019 1.40177C4.43656 1.54077 4.89147 1.80546 5.26592 2.17991L6.36936 3.28335Z" fill="#0460D9"/>
</svg>
