<svg width="17" height="17" viewBox="0 0 17 17" fill="none" xmlns="http://www.w3.org/2000/svg">
<path d="M5.39408 14.4237C4.61623 15.2021 3.35431 15.2021 2.57643 14.4237C1.81027 13.6581 1.79805 12.4232 2.5403 11.6427L6.73934 7.44368C5.4407 7.09644 4.00071 7.41605 2.96255 8.40338L1.0955 10.2704C-0.389041 11.8315 -0.364604 14.3011 1.16775 15.8324C2.72349 17.3892 5.24732 17.3892 6.80305 15.8324L8.5245 14.111C9.56791 13.0683 9.91189 11.5907 9.55665 10.2612L5.39408 14.4237Z" fill="white"/>
<path d="M15.8324 1.16775C14.3011 -0.364604 11.8315 -0.389041 10.2704 1.0955L8.40338 2.96255C7.41609 4.00074 7.09647 5.44073 7.44368 6.73934L11.6427 2.5403C12.4233 1.79805 13.658 1.81027 14.4237 2.57643C15.2021 3.35431 15.2021 4.6162 14.4237 5.39408L10.2611 9.55665C11.5906 9.91189 13.0682 9.56794 14.1109 8.5245L15.8324 6.80305C17.3892 5.24732 17.3892 2.72349 15.8324 1.16775Z" fill="white"/>
<path d="M5.47115 11.5291C5.86009 11.9183 6.49105 11.9183 6.87996 11.5291L11.5292 6.87985C11.9184 6.49091 11.9184 5.85995 11.5292 5.47104C11.1463 5.08795 10.5289 5.08184 10.1387 5.45298L5.45305 10.1386C5.08194 10.5288 5.08805 11.1462 5.47115 11.5291Z" fill="white"/>
</svg>
