<svg width="16" height="16" viewBox="0 0 16 16" fill="none" xmlns="http://www.w3.org/2000/svg">
<path d="M4.8432 2.81212H15.5292C15.7881 2.81212 15.9979 2.60227 15.9979 2.34343C15.9979 2.08459 15.7881 1.87475 15.5292 1.87475H4.8432C4.58436 1.87475 4.37451 2.08459 4.37451 2.34343C4.37451 2.60227 4.58436 2.81212 4.8432 2.81212Z" fill="black"/>
<path d="M15.5292 7.5302H4.8432C4.58436 7.5302 4.37451 7.74005 4.37451 7.99889C4.37451 8.25773 4.58436 8.46757 4.8432 8.46757H15.5292C15.7881 8.46757 15.9979 8.25773 15.9979 7.99889C15.9979 7.74005 15.7881 7.5302 15.5292 7.5302Z" fill="black"/>
<path d="M15.5292 13.1857H4.8432C4.58436 13.1857 4.37451 13.3955 4.37451 13.6544C4.37451 13.9132 4.58436 14.123 4.8432 14.123H15.5292C15.7881 14.123 15.9979 13.9132 15.9979 13.6544C15.9979 13.3955 15.7881 13.1857 15.5292 13.1857Z" fill="black"/>
<path d="M0.812438 0.937375H1.0784V3.90573C1.0784 4.16457 1.28825 4.37442 1.54709 4.37442C1.80593 4.37442 2.01578 4.16457 2.01578 3.90573V0.468688C2.01578 0.209847 1.80593 0 1.54709 0H0.812438C0.553597 0 0.34375 0.209847 0.34375 0.468688C0.34375 0.727528 0.553597 0.937375 0.812438 0.937375Z" fill="black"/>
<path d="M2.31479 9.24098C2.03836 9.24445 1.7473 9.24698 1.48746 9.24811C1.66428 9.00911 1.89385 8.69237 2.18668 8.27399C2.40853 7.95706 2.55351 7.65604 2.61769 7.37926C2.62125 7.36392 2.62403 7.34842 2.62603 7.3328L2.64268 7.20241C2.64522 7.18273 2.64647 7.16289 2.64647 7.14301C2.64647 6.40892 2.04926 5.81172 1.3152 5.81172C0.680477 5.81172 0.131081 6.26332 0.00887876 6.88549C-0.0410208 7.13948 0.124457 7.38582 0.378455 7.43569C0.632483 7.48553 0.878794 7.32011 0.928663 7.06612C0.96472 6.88242 1.12729 6.7491 1.31517 6.7491C1.52427 6.7491 1.69584 6.91289 1.70834 7.11889L1.69956 7.18773C1.67044 7.29949 1.5977 7.48072 1.41872 7.7365C0.885825 8.49793 0.567898 8.91418 0.397108 9.13784C0.181325 9.42037 0.0624654 9.576 0.140705 9.83044C0.187324 9.98195 0.301715 10.0981 0.454663 10.149C0.518092 10.1702 0.568929 10.1871 1.22331 10.1871C1.48309 10.1871 1.83801 10.1845 2.3266 10.1783C2.58541 10.175 2.7926 9.96258 2.78938 9.70373C2.78607 9.44493 2.57323 9.23811 2.31479 9.24098Z" fill="black"/>
<path d="M1.39484 11.6234C0.761677 11.6234 0.213687 12.0739 0.0918287 12.6945C0.0419291 12.9485 0.207407 13.1948 0.461405 13.2447C0.715433 13.2945 0.961744 13.1291 1.01161 12.8751C1.04739 12.693 1.20856 12.5608 1.39484 12.5608C1.61022 12.5608 1.78542 12.736 1.78542 12.9513C1.78542 13.1667 1.61022 13.3419 1.39484 13.3419C1.136 13.3419 0.926155 13.5518 0.926155 13.8106C0.926155 14.0694 1.136 14.2793 1.39484 14.2793C1.61022 14.2793 1.78542 14.4545 1.78542 14.6699C1.78542 14.8852 1.61022 15.0604 1.39484 15.0604C1.20106 15.0604 1.03477 14.9162 1.00808 14.725C1.00555 14.7068 1.00427 14.6883 1.00427 14.6699C1.00427 14.411 0.794423 14.2012 0.535582 14.2012C0.276742 14.2012 0.0668945 14.411 0.0668945 14.6699C0.0668945 14.7315 0.0712065 14.7936 0.0796741 14.8545C0.170631 15.5063 0.736055 15.9978 1.39484 15.9978C2.12709 15.9978 2.72279 15.4021 2.72279 14.6699C2.72279 14.3424 2.60337 14.0424 2.40615 13.8106C2.6034 13.5788 2.72279 13.2788 2.72279 12.9513C2.72279 12.2191 2.12706 11.6234 1.39484 11.6234Z" fill="black"/>
</svg>
