<svg width="15" height="11" viewBox="0 0 15 11" fill="none" xmlns="http://www.w3.org/2000/svg">
<path d="M3.48387 1H14.5161C14.7834 1 15 0.776133 15 0.5C15 0.223867 14.7834 0 14.5161 0H3.48387C3.21665 0 3 0.223867 3 0.5C3 0.776133 3.21665 1 3.48387 1Z" fill="black"/>
<rect width="1" height="1" rx="0.5" fill="black"/>
<path d="M3.48387 6H14.5161C14.7834 6 15 5.77613 15 5.5C15 5.22387 14.7834 5 14.5161 5H3.48387C3.21665 5 3 5.22387 3 5.5C3 5.77613 3.21665 6 3.48387 6Z" fill="black"/>
<rect y="5" width="1" height="1" rx="0.5" fill="black"/>
<path d="M3.48387 11H14.5161C14.7834 11 15 10.7761 15 10.5C15 10.2239 14.7834 10 14.5161 10H3.48387C3.21665 10 3 10.2239 3 10.5C3 10.7761 3.21665 11 3.48387 11Z" fill="black"/>
<rect y="10" width="1" height="1" rx="0.5" fill="black"/>
</svg>
