<svg width="12" height="11" viewBox="0 0 12 11" fill="none" xmlns="http://www.w3.org/2000/svg">
<path d="M8.69373 5.7652H9.98271V8.85157H8.69373V5.7652Z" fill="#0460D9"/>
<path d="M6.25269 5.7652H7.54175V8.85157H6.25269V5.7652Z" fill="#0460D9"/>
<path d="M3.81177 5.7652H5.10083V8.85157H3.81177V5.7652Z" fill="#0460D9"/>
<path d="M1.37085 5.7652H2.65983V8.85157H1.37085V5.7652Z" fill="#0460D9"/>
<path d="M10.4125 4.7984V4.47614H0.941162V4.7984C0.941162 4.9764 1.08543 5.12067 1.26343 5.12067H10.0902C10.2682 5.12067 10.4125 4.9764 10.4125 4.7984Z" fill="#0460D9"/>
<path d="M10.8542 9.49609H0.499268C0.321266 9.49609 0.177002 9.64036 0.177002 9.81836V10.6777C0.177002 10.8557 0.321266 11 0.499268 11H10.8542C11.0323 11 11.1765 10.8557 11.1765 10.6777V9.81836C11.1765 9.64036 11.0323 9.49609 10.8542 9.49609Z" fill="#0460D9"/>
<path d="M0.498995 3.83161H10.8545C10.9987 3.83161 11.1253 3.73585 11.1646 3.59713C11.2038 3.4584 11.1462 3.31045 11.0234 3.23491L5.84567 0.0478364C5.74211 -0.0159455 5.61144 -0.0159455 5.5078 0.0478364L0.330057 3.23491C0.207277 3.31053 0.149706 3.4584 0.188982 3.59713C0.228258 3.73585 0.354899 3.83161 0.498995 3.83161ZM5.4577 1.8955H5.89586C6.07386 1.8955 6.21813 2.03976 6.21813 2.21776C6.21813 2.39576 6.07386 2.54003 5.89586 2.54003H5.4577C5.2797 2.54003 5.13543 2.39576 5.13543 2.21776C5.13543 2.03976 5.2797 1.8955 5.4577 1.8955Z" fill="#0460D9"/>
</svg>
