<svg width="9" height="11" viewBox="0 0 9 11" fill="none" xmlns="http://www.w3.org/2000/svg">
<path d="M1.50779 4.34249H7.29791C7.43095 4.34249 7.53919 4.23446 7.53919 4.10122C7.53919 3.9686 7.43095 3.86015 7.29791 3.86015H7.28552C7.17645 2.53605 6.17604 1.46643 4.8854 1.24974V0.904772H4.46317V0.0603181C4.46317 0.0274737 4.43611 0 4.40285 0C4.36959 0 4.34253 0.0274737 4.34253 0.0603181V0.904565H3.92051V1.24954C2.62987 1.46623 1.62967 2.53584 1.51998 3.85995H1.50779C1.37476 3.85995 1.26672 3.9684 1.26672 4.10101C1.26672 4.23446 1.37476 4.34249 1.50779 4.34249Z" fill="#0460D9"/>
<path d="M8.50423 10.397H8.20264V7.62239H8.50423C8.67114 7.62239 8.80583 7.48812 8.80583 7.3208C8.80583 7.15493 8.67114 7.01921 8.50423 7.01921H0.301591C0.135096 7.01921 0 7.15493 0 7.3208C0 7.48812 0.135096 7.62239 0.301591 7.62239H0.603181V10.397H0.301591C0.135096 10.397 0 10.5325 0 10.6984C0 10.8659 0.135096 11 0.301591 11H8.50423C8.67114 11 8.80583 10.8659 8.80583 10.6984C8.80583 10.5329 8.67114 10.397 8.50423 10.397ZM7.35819 10.397H6.85168V7.62239H7.35819V10.397ZM4.14956 7.62239H4.65606V10.397H4.14956V7.62239ZM3.30531 10.397H2.7986V7.62239H3.30531V10.397ZM5.50072 7.62239H6.00723V10.397H5.50072V7.62239ZM1.44743 7.62239H1.95394V10.397H1.44743V7.62239Z" fill="#0460D9"/>
<path d="M1.14617 5.36789H1.45003C1.45003 5.37244 1.44755 5.37657 1.44755 5.37987V6.68167H2.05073V5.37987C2.05073 5.37553 2.04846 5.3712 2.04846 5.36789H2.33497C2.33497 5.37244 2.3327 5.37657 2.3327 5.37987V6.68167H2.93567V5.37987C2.93567 5.37553 2.9334 5.3712 2.9334 5.36789H3.21991C3.21991 5.37244 3.21764 5.37657 3.21764 5.37987V6.68167H3.82082V5.37987C3.82082 5.37553 3.81834 5.3712 3.81834 5.36789H4.10485C4.10485 5.37244 4.10237 5.37657 4.10237 5.37987V6.68167H4.70556V5.37987C4.70556 5.37553 4.70308 5.3712 4.70308 5.36789H4.98959C4.98959 5.37244 4.98711 5.37657 4.98711 5.37987V6.68167H5.59029V5.37987C5.59029 5.37553 5.58802 5.3712 5.58802 5.36789H5.87453C5.87453 5.37244 5.87205 5.37657 5.87205 5.37987V6.68167H6.47523V5.37987C6.47523 5.37553 6.47275 5.3712 6.47275 5.36789H6.75926C6.75926 5.37244 6.75699 5.37657 6.75699 5.37987V6.68167H7.36017V5.37987C7.36017 5.37553 7.35769 5.3712 7.35769 5.36789H7.66156C7.82846 5.36789 7.96315 5.23341 7.96315 5.0663C7.96315 4.8996 7.82846 4.76471 7.66156 4.76471H1.14803C0.981738 4.76471 0.846436 4.8996 0.846436 5.0663C0.846436 5.23259 0.979466 5.36789 1.14617 5.36789Z" fill="#0460D9"/>
</svg>
