<svg width="109" height="109" viewBox="0 0 109 109" fill="none" xmlns="http://www.w3.org/2000/svg">
<path d="M109 54.5C109 69.0575 103.331 82.7436 93.0375 93.0375C82.7436 103.331 69.0575 109 54.5 109C44.3091 109 34.5473 106.218 26.0753 101.02L32.3236 94.7721C38.9041 98.41 46.4638 100.484 54.5 100.484C79.8559 100.484 100.484 79.8559 100.484 54.5C100.484 46.4638 98.41 38.9041 94.7719 32.3238L101.02 26.0755C106.218 34.5473 109 44.3091 109 54.5ZM6.20406 108.817L0.18266 102.796L13.0685 89.9101C4.6127 80.0479 0 67.6288 0 54.5C0 39.9425 5.66906 26.2564 15.9625 15.9625C26.2564 5.66906 39.9425 0 54.5 0C67.6288 0 80.0479 4.6127 89.9101 13.0685L102.796 0.18266L108.817 6.20406L6.20406 108.817ZM19.1289 83.8495L83.8495 19.1289C75.8808 12.505 65.648 8.51562 54.5 8.51562C29.1441 8.51562 8.51562 29.1441 8.51562 54.5C8.51562 65.648 12.5048 75.8808 19.1289 83.8495Z" fill="#999999"/>
</svg>
