<svg width="57" height="57" viewBox="0 0 57 57" fill="none" xmlns="http://www.w3.org/2000/svg">
<path d="M57 3.34953L3.34963 57L0 53.6505L53.6505 0L57 3.34953ZM38.8631 4.24515L2.43669 40.4879V4.24515H38.8631ZM19.6902 15.3417C19.6902 11.8406 16.8521 9.00247 13.351 9.00247C9.81883 9.00247 7.01183 11.8773 7.01183 15.3417C7.01183 18.8063 9.81864 21.6808 13.351 21.6808C16.8522 21.6808 19.6902 18.8427 19.6902 15.3417ZM50.4312 47.0798C48.4925 47.0798 35.9299 47.0798 33.9623 47.0798L30.565 40.4679L27.0988 43.9164L28.6765 47.0797C28.1891 47.0797 26.9933 47.0797 23.9194 47.0797L18.216 52.7546H54.5643V16.5894L41.6379 29.451C44.6079 35.4058 50.2059 46.6285 50.4312 47.0798Z" fill="#999999"/>
</svg>
