<svg width="8" height="12" viewBox="0 0 8 12" fill="none" xmlns="http://www.w3.org/2000/svg">
<path d="M4.95219 9.14247C5.05734 9.14247 5.14267 9.05733 5.14267 8.95238V5.5238C5.14267 5.41866 5.05734 5.33333 4.95219 5.33333C4.84705 5.33333 4.76172 5.41866 4.76172 5.5238V8.95238C4.76191 9.05733 4.84724 9.14247 4.95219 9.14247Z" fill="#0460D9"/>
<path d="M3.04761 5.5238V8.95238C3.04761 9.05733 3.13294 9.14247 3.23789 9.14247H3.23808C3.34304 9.14247 3.42856 9.05733 3.42856 8.95238V5.5238C3.42856 5.41866 3.34323 5.33333 3.23808 5.33333C3.13294 5.33333 3.04761 5.41866 3.04761 5.5238Z" fill="#0460D9"/>
<path d="M1.52385 5.33333C1.41871 5.33333 1.33337 5.41866 1.33337 5.5238V8.95238C1.33337 9.05733 1.41871 9.14247 1.52366 9.14247H1.52385C1.6288 9.14247 1.71433 9.05733 1.71433 8.95238V5.5238C1.71433 5.41866 1.6288 5.33333 1.52385 5.33333Z" fill="#0460D9"/>
<path d="M0.761858 1.90476C0.807954 1.90476 0.857287 1.89676 0.917096 1.87981C0.968334 1.86552 1.02262 1.87257 1.06757 1.89981C1.11272 1.92705 1.14472 1.97181 1.15557 2.02343C1.211 2.28571 1.44586 2.476 1.71424 2.476C1.7331 2.476 1.75119 2.47295 1.76948 2.47048C1.76986 2.47048 1.78891 2.46781 1.78929 2.46762C1.86795 2.45848 1.94224 2.49524 1.98033 2.56305C2.08224 2.74438 2.27214 2.85676 2.47614 2.85676C2.64072 2.85676 2.79272 2.78667 2.90414 2.65924C2.94033 2.6179 2.99253 2.59409 3.04738 2.59409C3.10243 2.59409 3.15462 2.6179 3.19081 2.65924C3.30205 2.78667 3.45405 2.85676 3.61881 2.85676C3.61653 2.85581 3.62757 2.85467 3.63881 2.85429C3.64091 2.85429 3.64281 2.85409 3.64491 2.85409C3.73176 2.85409 3.80776 2.91295 3.82948 2.99752C3.84948 3.07581 3.88605 3.14838 3.93862 3.21333C3.995 3.28305 3.995 3.38286 3.93862 3.45257C3.85405 3.55752 3.80948 3.68076 3.80948 3.80933C3.80948 4.12438 4.06586 4.38076 4.38091 4.38076C4.69595 4.38076 4.95233 4.12438 4.95233 3.80933C4.95233 3.68095 4.90776 3.55771 4.823 3.45276C4.76662 3.38286 4.76662 3.28324 4.823 3.21333C4.90757 3.10876 4.95233 2.98552 4.95233 2.85695C4.95233 2.79181 4.93938 2.72419 4.91348 2.656C4.87862 2.56381 4.91995 2.46019 5.00872 2.41733C5.16795 2.34019 5.28452 2.19314 5.32033 2.02362C5.33119 1.972 5.36319 1.92724 5.40833 1.9C5.45348 1.87276 5.50833 1.86571 5.55881 1.88C5.61862 1.89676 5.66795 1.90476 5.71424 1.90476C6.02929 1.90476 6.28567 1.64838 6.28567 1.33333C6.28567 1.05714 6.08776 0.821333 5.81538 0.772381C5.77957 0.765905 5.74624 0.749524 5.71957 0.724762C5.63214 0.644 5.52167 0.593524 5.40053 0.579048C5.34014 0.571809 5.28681 0.536381 5.2571 0.483429C5.1091 0.221333 4.775 0.108571 4.491 0.262476C4.41043 0.307048 4.30948 0.286476 4.25176 0.214857C4.07786 -0.000380993 3.77405 -0.0653333 3.52452 0.079619C3.46548 0.114286 3.39214 0.114286 3.33291 0.079619C3.12262 -0.0426667 2.87576 -0.02 2.69119 0.128952C2.62129 0.185333 2.52148 0.185333 2.45176 0.128952C2.34681 0.0445714 2.22357 0 2.09519 0C1.89119 0 1.70129 0.112571 1.59938 0.293905C1.5611 0.361714 1.48624 0.4 1.40833 0.389333L1.38757 0.386476C1.17329 0.357905 0.949096 0.476762 0.837858 0.673905C0.808144 0.726857 0.75462 0.762286 0.69443 0.769524C0.407192 0.803619 0.19043 1.0459 0.19043 1.33333C0.19043 1.64819 0.446811 1.90476 0.761858 1.90476V1.90476Z" fill="#0460D9"/>
<path d="M3.50798 3.23124C3.34093 3.21124 3.18208 3.14629 3.0476 3.04401C2.88341 3.16877 2.68322 3.23791 2.47617 3.23791C2.17732 3.23791 1.89693 3.09467 1.71827 2.85696C1.71693 2.85696 1.7156 2.85696 1.71427 2.85696C1.33084 2.85696 0.988364 2.62382 0.840173 2.28172C0.747602 2.29105 0.657697 2.28496 0.571411 2.26801V9.9042H5.90474V2.26801C5.81846 2.28496 5.72836 2.29086 5.63541 2.28153C5.56665 2.43848 5.45541 2.57582 5.31484 2.67658C5.32703 2.73696 5.33332 2.79734 5.33332 2.85696C5.33332 3.02572 5.28855 3.18782 5.20265 3.33315C5.28855 3.47848 5.33332 3.64077 5.33332 3.80934C5.33332 4.33448 4.90608 4.76172 4.38094 4.76172C3.85579 4.76172 3.42855 4.33448 3.42855 3.80934C3.42855 3.64058 3.47351 3.47829 3.55941 3.33296C3.53998 3.30001 3.52303 3.2661 3.50798 3.23124V3.23124ZM2.09522 8.95239C2.09522 9.26725 1.83884 9.52344 1.52379 9.52344C1.20874 9.52344 0.952364 9.26725 0.952364 8.95239V5.52382C0.952364 5.20877 1.20855 4.95239 1.5236 4.95239C1.83884 4.95239 2.09503 5.20877 2.09503 5.52382V8.95239H2.09522ZM4.38094 5.52382C4.38094 5.20877 4.63713 4.95239 4.95217 4.95239C5.26741 4.95239 5.5236 5.20877 5.5236 5.52382V8.95239C5.5236 9.26725 5.26722 9.52344 4.95217 9.52344C4.63713 9.52344 4.38074 9.26725 4.38074 8.95239V5.52382H4.38094ZM3.80951 5.52382V8.95239C3.80951 9.26725 3.55313 9.52344 3.23808 9.52344C2.92303 9.52344 2.66665 9.26725 2.66665 8.95239V5.52382C2.66665 5.20877 2.92284 4.95239 3.23789 4.95239C3.55313 4.95239 3.80951 5.20858 3.80951 5.52382Z" fill="#0460D9"/>
<path d="M6.09524 10.2855H0.380952C0.170857 10.2855 0 10.4562 0 10.6665C0 10.8766 0.170857 11.0472 0.380952 11.0472H6.09524C6.30514 11.0472 6.476 10.8766 6.476 10.6667C6.476 10.4564 6.30514 10.2855 6.09524 10.2855V10.2855Z" fill="#0460D9"/>
<path d="M7.04767 3.04762H6.28577V3.42858H7.04767C7.36272 3.42858 7.6191 3.68496 7.6191 4V7.23791C7.6191 7.55296 7.36272 7.80934 7.04767 7.80934H6.28577V8.19029H7.04767C7.57281 8.19029 8.00005 7.76324 8.00005 7.23791V4C8.00005 3.47467 7.57281 3.04762 7.04767 3.04762V3.04762Z" fill="#0460D9"/>
</svg>
