<svg width="15" height="15" viewBox="0 0 15 15" fill="none" xmlns="http://www.w3.org/2000/svg">
<path d="M10.0172 1.71617C7.72881 -0.572058 4.0043 -0.572058 1.71592 1.71617C-0.571972 4.0049 -0.571972 7.72867 1.71592 10.0174C3.75378 12.0546 6.92766 12.2729 9.21455 10.6821C9.26267 10.9098 9.3728 11.127 9.5499 11.3041L12.8825 14.6365C13.3682 15.1212 14.153 15.1212 14.6361 14.6365C15.1213 14.1514 15.1213 13.3667 14.6361 12.883L11.3035 9.54964C11.1274 9.37404 10.9096 9.26342 10.6819 9.21531C12.2738 6.92807 12.0556 3.7549 10.0172 1.71617ZM8.96503 8.9653C7.25655 10.6737 4.47606 10.6737 2.76809 8.9653C1.0606 7.25694 1.0606 4.47713 2.76809 2.76877C4.47606 1.06091 7.25655 1.06091 8.96503 2.76877C10.6735 4.47713 10.6735 7.25694 8.96503 8.9653Z" fill="white"/>
</svg>
