<svg width="27" height="15" viewBox="0 0 27 15" fill="none" xmlns="http://www.w3.org/2000/svg">
<path d="M11.1625 6.78C12.0825 6.98 12.7892 7.38 13.2825 7.98C13.7892 8.56667 14.0425 9.32667 14.0425 10.26C14.0425 11.46 13.5958 12.3867 12.7025 13.04C11.8225 13.68 10.5158 14 8.7825 14H2.3425V-9.53674e-07H8.3825C9.9425 -9.53674e-07 11.1492 0.313332 12.0025 0.939999C12.8692 1.56667 13.3025 2.45333 13.3025 3.6C13.3025 4.37333 13.1092 5.03333 12.7225 5.58C12.3492 6.11333 11.8292 6.51333 11.1625 6.78ZM3.8225 1.22V6.3H8.2825C9.41583 6.3 10.2892 6.08667 10.9025 5.66C11.5158 5.22 11.8225 4.58667 11.8225 3.76C11.8225 2.93333 11.5158 2.30667 10.9025 1.88C10.2892 1.44 9.41583 1.22 8.2825 1.22H3.8225ZM8.7625 12.78C10.0158 12.78 10.9625 12.5667 11.6025 12.14C12.2425 11.7133 12.5625 11.0467 12.5625 10.14C12.5625 8.39333 11.2958 7.52 8.7625 7.52H3.8225V12.78H8.7625ZM20.8006 3.4C22.174 3.4 23.2273 3.74667 23.9606 4.44C24.694 5.12 25.0606 6.13333 25.0606 7.48V14H23.7006V12.36C23.3806 12.9067 22.9073 13.3333 22.2806 13.64C21.6673 13.9467 20.934 14.1 20.0806 14.1C18.9073 14.1 17.974 13.82 17.2806 13.26C16.5873 12.7 16.2406 11.96 16.2406 11.04C16.2406 10.1467 16.5606 9.42667 17.2006 8.88C17.854 8.33333 18.8873 8.06 20.3006 8.06H23.6406V7.42C23.6406 6.51333 23.3873 5.82667 22.8806 5.36C22.374 4.88 21.634 4.64 20.6606 4.64C19.994 4.64 19.354 4.75333 18.7406 4.98C18.1273 5.19333 17.6006 5.49333 17.1606 5.88L16.5206 4.82C17.054 4.36667 17.694 4.02 18.4406 3.78C19.1873 3.52667 19.974 3.4 20.8006 3.4ZM20.3006 12.98C21.1006 12.98 21.7873 12.8 22.3606 12.44C22.934 12.0667 23.3606 11.5333 23.6406 10.84V9.12H20.3406C18.5406 9.12 17.6406 9.74667 17.6406 11C17.6406 11.6133 17.874 12.1 18.3406 12.46C18.8073 12.8067 19.4606 12.98 20.3006 12.98Z" fill="black"/>
<path d="M0.0625 7.7H26.9406V8.7H0.0625V7.7Z" fill="black"/>
</svg>
