<svg width="27" height="15" viewBox="0 0 27 15" fill="none" xmlns="http://www.w3.org/2000/svg">
<path d="M10.6636 6.78C11.3836 6.98 11.9369 7.32 12.3236 7.8C12.7103 8.28 12.9036 8.9 12.9036 9.66C12.9036 11.06 12.3703 12.1333 11.3036 12.88C10.2503 13.6267 8.79026 14 6.92359 14H0.423594L3.22359 -9.53674e-07H9.20359C10.5636 -9.53674e-07 11.6169 0.253332 12.3636 0.759999C13.1236 1.26667 13.5036 2.00667 13.5036 2.98C13.5036 3.92667 13.2436 4.73333 12.7236 5.4C12.2036 6.05333 11.5169 6.51333 10.6636 6.78ZM4.44359 1.22L3.42359 6.3H7.88359C9.12359 6.3 10.1169 6.04 10.8636 5.52C11.6103 4.98667 11.9836 4.22667 11.9836 3.24C11.9836 2.56 11.7169 2.05333 11.1836 1.72C10.6636 1.38667 9.91026 1.22 8.92359 1.22H4.44359ZM7.04359 12.78C8.45693 12.78 9.54359 12.5133 10.3036 11.98C11.0636 11.4467 11.4436 10.68 11.4436 9.68C11.4436 8.90667 11.1703 8.35333 10.6236 8.02C10.0903 7.68667 9.27693 7.52 8.18359 7.52H3.18359L2.14359 12.78H7.04359ZM26.9017 3.48L24.8017 14H23.4417L23.7817 12.34C23.2751 12.9 22.6751 13.3333 21.9817 13.64C21.2884 13.9467 20.5217 14.1 19.6817 14.1C18.7884 14.1 17.9951 13.92 17.3017 13.56C16.6084 13.2 16.0684 12.6867 15.6817 12.02C15.2951 11.34 15.1017 10.5467 15.1017 9.64C15.1017 8.45333 15.3551 7.38667 15.8617 6.44C16.3817 5.49333 17.0951 4.75333 18.0017 4.22C18.9084 3.67333 19.9217 3.4 21.0417 3.4C22.0417 3.4 22.8817 3.6 23.5617 4C24.2417 4.38667 24.7351 4.94667 25.0417 5.68L25.4817 3.48H26.9017ZM19.9817 12.84C20.8484 12.84 21.6284 12.6333 22.3217 12.22C23.0151 11.7933 23.5551 11.2067 23.9417 10.46C24.3417 9.7 24.5417 8.85333 24.5417 7.92C24.5417 6.89333 24.2351 6.09333 23.6217 5.52C23.0217 4.93333 22.1751 4.64 21.0817 4.64C20.2151 4.64 19.4351 4.85333 18.7417 5.28C18.0484 5.70667 17.5017 6.3 17.1017 7.06C16.7151 7.80667 16.5217 8.64667 16.5217 9.58C16.5217 10.6067 16.8217 11.4067 17.4217 11.98C18.0351 12.5533 18.8884 12.84 19.9817 12.84Z" fill="black"/>
</svg>
