<svg width="25" height="15" viewBox="0 0 25 15" fill="none" xmlns="http://www.w3.org/2000/svg">
<path d="M10.1184 6.72C10.8917 6.97333 11.505 7.4 11.9584 8C12.4117 8.58667 12.6384 9.32 12.6384 10.2C12.6384 11.4133 12.1717 12.3533 11.2384 13.02C10.305 13.6733 8.94503 14 7.15836 14H0.198359V-9.53674e-07H6.75836C8.41169 -9.53674e-07 9.68503 0.326666 10.5784 0.98C11.4717 1.62 11.9184 2.50667 11.9184 3.64C11.9184 4.33333 11.7584 4.94667 11.4384 5.48C11.1184 6.01333 10.6784 6.42667 10.1184 6.72ZM2.79836 2.04V5.9H6.47836C7.38503 5.9 8.07836 5.74 8.55836 5.42C9.05169 5.08667 9.29836 4.60667 9.29836 3.98C9.29836 3.34 9.05169 2.86 8.55836 2.54C8.07836 2.20667 7.38503 2.04 6.47836 2.04H2.79836ZM6.99836 11.96C9.01169 11.96 10.0184 11.2867 10.0184 9.94C10.0184 8.59333 9.01169 7.92 6.99836 7.92H2.79836V11.96H6.99836ZM19.2532 3.2C20.8265 3.2 22.0265 3.58 22.8532 4.34C23.6932 5.08667 24.1132 6.22 24.1132 7.74V14H21.7532V12.7C21.4465 13.1667 21.0065 13.5267 20.4332 13.78C19.8732 14.02 19.1932 14.14 18.3932 14.14C17.5932 14.14 16.8932 14.0067 16.2932 13.74C15.6932 13.46 15.2265 13.08 14.8932 12.6C14.5732 12.1067 14.4132 11.5533 14.4132 10.94C14.4132 9.98 14.7665 9.21333 15.4732 8.64C16.1932 8.05333 17.3199 7.76 18.8532 7.76H21.6132V7.6C21.6132 6.85333 21.3865 6.28 20.9332 5.88C20.4932 5.48 19.8332 5.28 18.9532 5.28C18.3532 5.28 17.7599 5.37333 17.1732 5.56C16.5999 5.74667 16.1132 6.00667 15.7132 6.34L14.7332 4.52C15.2932 4.09333 15.9665 3.76667 16.7532 3.54C17.5399 3.31333 18.3732 3.2 19.2532 3.2ZM18.9132 12.32C19.5399 12.32 20.0932 12.18 20.5732 11.9C21.0665 11.6067 21.4132 11.1933 21.6132 10.66V9.42H19.0332C17.5932 9.42 16.8732 9.89333 16.8732 10.84C16.8732 11.2933 17.0532 11.6533 17.4132 11.92C17.7732 12.1867 18.2732 12.32 18.9132 12.32Z" fill="black"/>
</svg>
